<?xml version="1.0" standalone="no"?><!DOCTYPE svg PUBLIC "-//W3C//DTD SVG 1.1//EN" "http://www.w3.org/Graphics/SVG/1.1/DTD/svg11.dtd"><svg t="1492320554308" class="icon" style="" viewBox="0 0 1024 1024" version="1.1" xmlns="http://www.w3.org/2000/svg" p-id="5707" xmlns:xlink="http://www.w3.org/1999/xlink" width="200" height="200"><defs><style type="text/css"></style></defs><path d="M913.018861 927.232073 110.392738 927.232073c-43.083238 0-78.133521-35.051307-78.133521-78.133521L32.259216 174.392866c0-43.083238 35.050284-78.133521 78.133521-78.133521l163.019841 0c33.95023 0 77.654614 18.10331 101.660354 42.10905l62.285578 62.285578c12.092409 12.093433 39.696094 23.526833 56.797587 23.526833l418.86174 0c43.084261 0 78.133521 35.050284 78.133521 78.133521l0 546.783201C991.152383 892.180765 956.102099 927.232073 913.018861 927.232073zM110.392738 159.704328c-7.962346 0-14.688537 6.727215-14.688537 14.688537l0 674.704662c0 7.962346 6.727215 14.688537 14.688537 14.688537l802.626123 0c7.962346 0 14.688537-6.726192 14.688537-14.688537l0-546.783201c0-7.962346-6.726192-14.688537-14.688537-14.688537L494.156098 287.62579c-33.95023 0-77.654614-18.10331-101.660354-42.10905l-62.285578-62.285578c-12.092409-12.093433-39.696094-23.526833-56.797587-23.526833L110.392738 159.704328z" p-id="5708" fill="#ffffff"></path><path d="M639.627261 607.42842 383.784338 607.42842c-17.520025 0-31.722492-14.202467-31.722492-31.722492s14.202467-31.722492 31.722492-31.722492l255.842922 0c17.520025 0 31.722492 14.202467 31.722492 31.722492S657.147286 607.42842 639.627261 607.42842z" p-id="5709" fill="#ffffff"></path><path d="M511.705799 735.349881c-17.520025 0-31.722492-14.202467-31.722492-31.722492L479.983307 447.784466c0-17.520025 14.202467-31.722492 31.722492-31.722492 17.520025 0 31.722492 14.202467 31.722492 31.722492l0 255.842922C543.428292 721.147414 529.225825 735.349881 511.705799 735.349881z" p-id="5710" fill="#ffffff"></path></svg>