<?xml version="1.0" standalone="no"?><!DOCTYPE svg PUBLIC "-//W3C//DTD SVG 1.1//EN" "http://www.w3.org/Graphics/SVG/1.1/DTD/svg11.dtd"><svg t="1492320578125" class="icon" style="" viewBox="0 0 1024 1024" version="1.1" xmlns="http://www.w3.org/2000/svg" p-id="6423" xmlns:xlink="http://www.w3.org/1999/xlink" width="200" height="200"><defs><style type="text/css"></style></defs><path d="M979.235982 667.302065l-0.929162 5.597485-0.936325 2.798742-0.929162 1.865487-0.936325 1.865487-0.930185 0.928139-0.935302 1.865487-0.930185 1.865487-0.935302 2.798742-0.928139 1.865487-0.937348 1.865487-0.930185 1.860371-0.936325 0.938372-0.927115 0.927115-0.938372 0.938372-0.927115 0.933255-0.930185 1.860371-0.935302 0.932232-0.930185 2.798742-1.863441 0.933255-1.867534 0.932232 0 1.865487-1.865487 0-0.936325 1.865487-0.928139 1.867534-1.865487 0.926092-1.865487 0.933255-1.865487 0.932232-0.931209 0.939395-0.934279 0.926092-0.931209 1.866511-0.934279 0.932232-2.793626 0.933255-2.803859 0.927115-2.792603 0.938372-1.865487 0.927115-1.866511 0.938372-0.935302 1.866511-1.857301 0.927115-2.803859 0.937348-8.391111 0.928139-337.616344 0.938372-2.792603 0.927115-0.938372 0.937348-0.927115 0.928139-0.936325 0.928139-0.929162 0.937348-0.936325 0.934279-1.867534 0.931209 0 1.865487-1.866511 0 0 0.928139c-2.342348 8.798387-11.932774 6.55223-12.120039 14.927991-5.796006 1.348718-6.323009 2.225691-9.488095 6.358825-3.304256 4.310166-7.122211 1.600451-7.297197 9.496282l-5.16258 0.671289-4.166903 2.12029-0.432859 4.801353-8.893554 4.529153c-0.62524 5.717212-3.533476 2.960425-6.343475 5.780657-3.196809 3.203972 1.354857 6.164397-6.707772 6.342452l0 2.802836-1.866511 0-0.069585 5.420453-2.733251 1.105171-4.660136 0-3.730974 6.525624c-5.696746 0.130983-7.974625 3.89982-10.417257 7.302313-2.665713 3.711532-7.624654 3.89368-8.234545 9.490142-9.782807 2.272763-5.988388 4.352121-9.188266 7.589862-2.871397 2.902096-6.493901-0.464581-8.529257 8.260128-7.79043 0.171915-14.811334 10.350742-17.720593 15.85613-8.483208 0.182149-5.65786 3.163039-11.574616 7.082302-4.25593 2.819209-1.987261 1.89721-4.339842 4.983501-1.325182 1.739621-3.693112 2.494821-5.53711 3.78828-4.652973 3.28379-14.887059 16.318664-20.514219 16.787338l0 2.798742c-4.934382 1.782599-1.711991 3.815909-9.330506 5.593392l-12.93766 15.119349 0.815575 0.73985c-4.00522 0.328481-8.893554 2.548032-9.328459 6.525624l-2.794649 0c-2.847861 0-7.462972-1.755993-7.462972-4.669346l0-3.721765c0-2.829442 1.827625-4.357238 4.790096-4.638647l2.635013-15.906272 8.429996-10.238179c0-19.414165 3.632737-11.30344 5.596462-18.647709l1.865487 0 0-0.934279 0.959861-16.739243 5.825682-2.815115 2.146896-16.162098 5.872754-4.399193 1.049912-8.376785 0-5.597485c3.609201-1.307785 6.526647-6.598278 6.526647-12.124132l1.866511 0 0-8.401344c0-5.728468 8.391111-3.016707 8.703219-17.539468l7.212262-12.669554-0.944512-0.485047 1.812275-1.016143 0.935302 0 0-4.660136 0-6.525624 2.796696 0c0.403183-3.680832 3.731998-5.551436 3.731998-8.402367l0-3.730974c0-4.930289-9.54233-1.856277-14.919804-1.856277L98.831424 728.847793c-10.387581 0-12.223393-1.530866-15.855106-8.401344-13.981433 0-6.244214-7.144724-19.587104-10.256598-0.159636-6.953366-7.036253-8.589632-9.328459-14.916734l-4.782933 0.031722-3.601015-15.000646-5.475711-0.906649-1.065262-10.242272L39.135834 134.76738c0-5.490038 0.26606-9.81453 5.429663-10.308787l3.973498-14.773472 6.451946-3.831258c2.125407-9.108448 7.54586-5.406127 9.326413-13.050224l3.733021 0 1.864464 0 1.865487-0.937348 0.929162-0.930185 1.867534-0.935302 0.936325-0.931209 0.929162-0.937348 0.937348-0.928139 0.929162-0.937348 0.935302-0.929162 2.794649-0.937348 3.730974-0.929162 2.795673-0.929162 2.802836-0.935302 1.864464-0.930185 0.930185-0.937348 1.865487-0.929162 0.936325-0.937348 5.598508-0.928139 816.987203 0 5.597485 0.928139 0.931209 0.937348 0.934279 0.929162 2.793626 0.937348 1.865487 0.930185 1.865487 0.935302 3.733021 0.929162 3.730974 0.929162 0.926092 0.937348 1.867534 0.929162 0.934279 0.937348 0.931209 0.928139 0.937348 0.937348 0.928139 0.931209 1.865487 0.935302 1.865487 0.930185 1.865487 0.937348 0.928139 0.927115 0.937348 0.938372 0.927115 1.864464 0.939395 0.929162 0.927115 0.937348 0.938372 0.928139 1.865487 0.930185 0.927115 0.937348 0.935302 0.929162 0.931209 1.865487 0.934279 1.865487 0.931209 0.937348 0.926092 1.865487 0.939395 0.930185 1.865487 0.935302 0.928139 1.867534 0.937348 1.863441 0.928139 2.794649 0.934279 1.866511 0.931209 2.794649 0.934279 0.938372 0.931209 1.863441 0.934279 1.867534 0.931209 1.865487 0.936325 1.864464 0.929162 6.526647 0.936325 12.124132 0 506.420935-0.936325 12.123109L979.235982 667.305135zM475.611743 877.149421l1.865487 0 0.933255-0.933255 1.865487-0.932232 0.930185-0.939395 0.938372-0.927115 0-0.932232 1.863441-5.599532c4.609994-0.379647 2.642177-1.678222 7.455809-2.796696 0.946558-4.050246 10.510378-13.526061 13.989619-15.84999l3.730974 0 0-2.799766 1.865487 0c0.333598-4.028757 0.527003-3.637854 4.668323-3.730974l0-2.798742 2.795673 0c1.011027-4.357238 2.207271-5.477758 7.460925-5.597485 1.25662-5.398964 3.085268-3.106758 4.663206-7.458879l3.730974 0c1.873674-8.030907 3.883447-5.685489 9.517771-9.349949l-1.12666-7.438413 8.391111 0c2.761903-7.625678 9.493212-5.728468 10.264784-14.916734 11.659551 0 6.762007-8.500605 16.647145-9.360182l1.074472-5.565762c6.980995-1.63115 10.438747-3.038196 12.123109-10.256598 6.328126 0 11.172457-1.865487 20.515243-1.865487 7.460925 0 14.923898 0 22.38073 0 15.237029 0 30.465872 0 45.706995 0 30.458709 0 60.925604 0 91.394546 0 30.15581 0 60.311621 0 90.469478 0 15.229866 0 30.459732-0.031722 45.696762 0 12.961196 0.021489 9.952676-1.073448 18.298761-4.080945 2.421142-0.874927 17.324574-2.444679 21.452591-2.064009l4.080945-6.916527c10.225899 0 15.855106 2.162246 15.855106-8.391111 2.916423-0.245593 3.311419-0.934279 6.525624-0.934279l2.741437-0.030699 2.856048-6.500041 4.660136 0c2.345418-8.775874 9.595542-6.936993 10.264784-14.915711 8.644891-2.01796 6.128581-9.344832 13.053294-11.195993l0-3.730974c0-6.374174 5.649674-10.887978 7.797593-19.014052l2.322905 2.184759 1.073448-1.818415L1018.40712 113.317858c-6.161327-2.542916-2.210341 3.099594-5.186116-6.008854-0.75213-2.306532-4.104481-6.282077-5.412266-7.226588l-3.390213-11.011798-3.403516-0.083911-2.192945-9.244548-5.513574-0.014326-1.014096-6.511297c-7.79657-4.128017-5.931083-9.144264-13.95892-9.336646l-0.966001-4.652973-2.795673 0 0-3.730974c-9.014304-0.204661-8.17724-7.463995-19.585057-7.463995l-6.528694 0c-0.14224-6.456039-2.114151-4.498454-6.545066-7.172353l-23.303752-1.218758c-3.275603-2.190899-6.662747-2.800789-12.123109-2.800789l-790.862195 0.106424-29.859052 3.624551-6.107091 0.768503-11.704576 6.221702-11.102872 2.338255c-0.434905 5.222955-5.652743 6.388501-9.778714 7.705496l-3.27458 6.2831-5.124717-0.168846L36.338115 72.279187l-2.794649 0c-2.521426 0-2.573615 0.449231-4.668323 0.937348-0.756223 9.122775-4.729721 5.336542-7.220449 10.501168-0.966001 2.00261-5.825682 11.788487-5.831822 11.878538l-2.803859 0 0 9.330506c0 3.812839-0.943488 5.28333-4.239558 5.79396l-2.599198 4.455475L4.627902 170.20959l-0.319272 464.459241 2.222621 56.769958 3.191692 1.293459 2.436492 4.852518 0.859577-0.438998 0 5.593392c0 9.026584 7.463995 8.881274 7.463995 13.06148l0.257873 3.480264 11.416004 10.815323 4.181229 7.157004 7.461949 0 0 2.792603c0 1.38658 2.010797 4.123924 2.794649 5.599532 7.325849 0 9.579169 1.270946 10.250458 7.53051l12.022825 0.911766 2.931772 5.369288 25.161053 2.969635c2.064009 1.38658 6.442736 4.670369 9.320273 4.670369l251.816213 0c4.882194 0 15.854083-2.904143 15.854083 2.792603l0 8.402367c0 5.338588-1.49198 6.661723-2.00875 10.873652l-5.833869 2.162246-0.509606 17.575284-3.41068-0.319272-4.090155 2.345418 0 8.392134c0 13.425777-8.392134 11.111059-8.392134 17.71957l0 11.195993c-7.53051 1.750877-9.329483 4.54348-9.329483 13.989619l0 3.726881c-5.269004 1.412163-7.461949 13.456477-7.461949 20.519336-6.107091 1.626034-7.461949 10.705829-7.461949 18.653849l0 29.843702c0 2.517333 0.448208 2.564405 0.937348 4.660136l0.716314-0.662079 3.326768 3.89368 6.214539 3.305279c1.957585 8.4126 4.843308 7.451716 14.863523 7.54586l5.650697 2.710738 0 2.792603 10.266831 0c3.776 0 5.519714-1.886977 6.523577-4.624321l14.735609-1.146103 5.779633-7.2798c5.742794-0.130983 16.335037-10.41521 17.2335-15.158235l7.950066-4.429893 0-3.731998c7.668657-0.64059 6.26775-8.213056 15.138792-10.971889 6.959505-2.162246 1.301645-3.252067 6.928806-6.134721 5.649674-2.89084 4.393054-1.567705 5.909593-8.077979 6.578836 0 7.895831-1.454118 8.391111-7.462972l2.802836 0c2.51938 0 2.564405-0.438998 4.461615-0.964978l1.13587-6.493901c16.866133-3.930519 0.348947-9.324366 14.916734-9.330506l-3.730974 3.738138L475.611743 877.147374z" p-id="6424" fill="#ffffff"></path><path d="M246.681774 411.04061m-72.625064 0a70.971 70.971 0 1 0 145.250128 0 70.971 70.971 0 1 0-145.250128 0Z" p-id="6425" fill="#ffffff"></path><path d="M737.07364 411.04061m-72.625064 0a70.971 70.971 0 1 0 145.250128 0 70.971 70.971 0 1 0-145.250128 0Z" p-id="6426" fill="#ffffff"></path><path d="M487.797273 411.04061m-72.625064 0a70.971 70.971 0 1 0 145.250128 0 70.971 70.971 0 1 0-145.250128 0Z" p-id="6427" fill="#ffffff"></path></svg>