<?xml version="1.0" standalone="no"?><!DOCTYPE svg PUBLIC "-//W3C//DTD SVG 1.1//EN" "http://www.w3.org/Graphics/SVG/1.1/DTD/svg11.dtd"><svg t="1492320621349" class="icon" style="" viewBox="0 0 1024 1024" version="1.1" xmlns="http://www.w3.org/2000/svg" p-id="7854" xmlns:xlink="http://www.w3.org/1999/xlink" width="200" height="200"><defs><style type="text/css"></style></defs><path d="M938.016 832q6.016 24-2.496 45.504t-26.496 38.016-44 26.016-56 9.504q-188.992 0.992-338.016 0.992l-340 0q-36 0-63.488-12.992t-44-32-22.016-41.504 1.504-40.512q6.016-14.016 12-28.992 4.992-12.992 12-29.504t15.008-33.504l38.016-92 114.016 0-43.008 126.016 644 0-43.008-126.016 108.992 0q20.992 51.008 38.016 92 7.008 18.016 14.016 35.008t12.512 30.496 8.992 23.008 3.488 10.496zM435.008 647.008q-19.008-22.016-43.488-55.008t-50.496-68-51.488-68.992-45.504-59.008q-23.008-27.008-18.016-44.512t34.016-17.504q16 0.992 43.008-0.512t44.992-1.504q20 0 24.992-12t4.992-32q0-22.016-0.512-48.512t-0.512-54.496-0.512-55.008-0.512-50.016q0-10.016 1.504-20.992t7.008-20 16-15.008 28.512-6.016q20.992 0 38.496-0.512t40.512-0.512q32.992 0 44.512 15.488t12.512 49.504l0 39.008q0 23.008 0.512 48.992t0.512 52l0 47.008q0 28.992 6.016 46.496t27.008 16.512q15.008 0 36.512 0.992t37.504 0.992q27.008 0 34.496 14.496t-10.496 37.504q-19.008 24-44 58.016t-51.488 70.496-52 71.008-45.504 59.488q-18.016 23.008-34.496 23.488t-34.496-21.504z" p-id="7855" fill="#ffffff"></path></svg>