<?xml version="1.0" standalone="no"?><!DOCTYPE svg PUBLIC "-//W3C//DTD SVG 1.1//EN" "http://www.w3.org/Graphics/SVG/1.1/DTD/svg11.dtd"><svg t="1492263056327" class="icon" style="" viewBox="0 0 1024 1024" version="1.1" xmlns="http://www.w3.org/2000/svg" p-id="5516" xmlns:xlink="http://www.w3.org/1999/xlink" width="200" height="200"><defs><style type="text/css"></style></defs><path d="M871.812879 820.032562c0 15.286148-12.392238 27.678386-27.678386 27.678386s-27.678386-12.392238-27.678386-27.678386c0-3.273557 0-8.120958 0-14.983249 0-69.394487-141.16816-167.460989-303.301817-167.460989-128.897695 0-305.612443 82.659605-305.612443 164.698063 0 8.05956 0 14.471596 0 17.745153 0 15.286148-12.392238 27.678386-27.678386 27.678386-15.285125 0-27.678386-12.392238-27.678386-27.678386 0-3.273557 0-16.968463 0-34.828226 0-41.467437 61.594847-148.141992 229.826386-187.776687-60.754712-41.537022-100.662631-111.331621-100.662631-190.483332 0-127.381156 103.264898-230.655264 230.649124-230.655264 127.386272 0 230.649124 103.274108 230.649124 230.655264 0 77.837786-38.671765 146.525168-97.730858 188.292434 170.040744 38.058804 226.894613 150.176324 226.894613 189.966563C871.812879 803.237037 871.812879 816.759005 871.812879 820.032562zM687.293375 406.939199c0-96.807836-78.483492-175.293375-175.293375-175.293375s-175.293375 78.485539-175.293375 175.293375c0 96.821139 78.483492 175.293375 175.293375 175.293375S687.293375 503.760338 687.293375 406.939199z" p-id="5517" fill="#ffffff"></path></svg>