<?xml version="1.0" standalone="no"?><!DOCTYPE svg PUBLIC "-//W3C//DTD SVG 1.1//EN" "http://www.w3.org/Graphics/SVG/1.1/DTD/svg11.dtd"><svg t="1492336020297" class="icon" style="" viewBox="0 0 1024 1024" version="1.1" xmlns="http://www.w3.org/2000/svg" p-id="12599" xmlns:xlink="http://www.w3.org/1999/xlink" width="200" height="200"><defs><style type="text/css"></style></defs><path d="M91.009 992.703c-10.595-5.485-17.19-15.925-17.19-27.269v-920.117c0-11.312 6.596-21.752 17.19-27.237 10.594-5.515 23.553-5.172 33.814 0.841l703.081 460.074c9.728 5.703 15.591 15.643 15.591 26.396 0 10.72-5.863 20.693-15.591 26.396l-703.081 460.074c-5.397 3.148-11.527 4.737-17.69 4.737-5.53 0-11.094-1.278-16.124-3.895z" p-id="12600" fill="#ffffff"></path><path d="M792.524 928.009v-852.001c0-42.032 36.4-76.007 81.252-76.007 44.85 0 81.252 33.975 81.252 76.007v852.001c0 41.955-36.4 76.007-81.252 76.007s-81.252-34.051-81.252-76.007z" p-id="12601" fill="#ffffff"></path></svg>