<?xml version="1.0" standalone="no"?><!DOCTYPE svg PUBLIC "-//W3C//DTD SVG 1.1//EN" "http://www.w3.org/Graphics/SVG/1.1/DTD/svg11.dtd"><svg t="1492262155068" class="icon" style="" viewBox="0 0 1024 1024" version="1.1" xmlns="http://www.w3.org/2000/svg" p-id="2674" xmlns:xlink="http://www.w3.org/1999/xlink" width="200" height="200"><defs><style type="text/css"></style></defs><path d="M767.726933 221.866667c-18.9952 0-34.4064 15.394133-34.4064 34.4064l0 260.130133c-0.1024-0.0512-0.1536-0.136533-0.256-0.187733l-459.434667-255.931733c-14.6432-8.174933-31.2832-8.157867-45.943467 0.017067-14.6432 8.174933-22.954667 22.084267-22.954667 38.417067l0 511.863467c0 16.3328 8.311467 30.242133 22.954667 38.417067 14.6432 8.174933 31.2832 8.174933 45.943467 0.017067l459.434667-255.931733c0.1024-0.0512 0.1536-0.136533 0.256-0.187733l0 260.164267c0 18.9952 15.394133 34.4064 34.4064 34.4064S802.133333 872.072533 802.133333 853.060267L802.133333 256.273067C802.133333 237.2608 786.7392 221.866667 767.726933 221.866667z" p-id="2675"></path></svg>