<?xml version="1.0" standalone="no"?><!DOCTYPE svg PUBLIC "-//W3C//DTD SVG 1.1//EN" "http://www.w3.org/Graphics/SVG/1.1/DTD/svg11.dtd"><svg t="1492336344156" class="icon" style="" viewBox="0 0 1024 1024" version="1.1" xmlns="http://www.w3.org/2000/svg" p-id="14209" xmlns:xlink="http://www.w3.org/1999/xlink" width="200" height="200"><defs><style type="text/css"></style></defs><path d="M410.393 309.487c-21.593 0-39.156 17.565-39.156 39.156l0 309.72c0 21.592 17.563 39.156 39.156 39.156 21.591 0 39.155-17.564 39.155-39.156l0-309.72C449.548 327.053 431.982 309.487 410.393 309.487z" p-id="14210" fill="#ffffff"></path><path d="M945.896 323.869c-23.246-54.956-56.522-104.31-98.903-146.691-42.382-42.381-91.735-75.657-146.691-98.903-56.903-24.07-117.341-36.274-179.635-36.274-62.29 0-122.728 12.204-179.629 36.274-54.956 23.246-104.31 56.522-146.692 98.903-42.382 42.382-75.657 91.736-98.905 146.691C71.37 380.772 59.165 441.21 59.165 503.504c0 62.293 12.204 122.73 36.273 179.635 23.246 54.955 56.521 104.31 98.903 146.691 42.382 42.381 91.734 75.656 146.69 98.902 56.903 24.069 117.341 36.272 179.635 36.272s122.731-12.203 179.636-36.272c54.955-23.246 104.311-56.521 146.69-98.902 42.381-42.383 75.657-91.736 98.903-146.691 24.068-56.903 36.272-117.342 36.272-179.635C982.169 441.21 969.965 380.772 945.896 323.869zM675.302 869.557c-48.971 20.713-100.998 31.216-154.636 31.216-53.635 0-105.659-10.503-154.63-31.216-47.305-20.008-89.791-48.653-126.279-85.143-36.487-36.489-65.135-78.975-85.144-126.279-20.713-48.971-31.217-100.996-31.217-154.631s10.504-105.66 31.217-154.63c20.009-47.305 48.654-89.792 85.144-126.28 36.489-36.488 78.976-65.135 126.279-85.143 48.971-20.713 100.995-31.215 154.63-31.215s105.66 10.502 154.63 31.215c47.305 20.008 89.792 48.655 126.28 85.143 36.488 36.488 65.135 78.975 85.144 126.28 20.713 48.97 31.216 100.995 31.216 154.63s-10.502 105.66-31.215 154.631c-20.008 47.306-48.652 89.791-85.14 126.279S722.605 849.549 675.302 869.557z" p-id="14211" fill="#ffffff"></path><path d="M630.955 309.487c-21.591 0-39.156 17.565-39.156 39.156l0 309.72c0 21.592 17.565 39.156 39.156 39.156s39.156-17.564 39.156-39.156l0-309.72C670.111 327.053 652.546 309.487 630.955 309.487z" p-id="14212" fill="#ffffff"></path></svg>