<?xml version="1.0" standalone="no"?><!DOCTYPE svg PUBLIC "-//W3C//DTD SVG 1.1//EN" "http://www.w3.org/Graphics/SVG/1.1/DTD/svg11.dtd"><svg t="1492336308553" class="icon" style="" viewBox="0 0 1024 1024" version="1.1" xmlns="http://www.w3.org/2000/svg" p-id="13319" xmlns:xlink="http://www.w3.org/1999/xlink" width="200" height="200"><defs><style type="text/css"></style></defs><path d="M512 1009.777778C237.525333 1009.777778 14.222222 786.474667 14.222222 512S237.511111 14.222222 512 14.222222c274.474667 0 497.777778 223.303111 497.777778 497.777778S786.474667 1009.777778 512 1009.777778zM512 42.666667C253.198222 42.666667 42.666667 253.212444 42.666667 512c0 258.773333 210.545778 469.333333 469.333333 469.333333 258.773333 0 469.333333-210.56 469.333333-469.333333C981.333333 253.212444 770.773333 42.666667 512 42.666667z" p-id="13320" fill="#ffffff"></path><path d="M403.712 337.706667 705.607111 512 403.712 686.307556Z" p-id="13321" fill="#ffffff"></path><path d="M396.600889 698.624 396.600889 325.390222 719.829333 512 396.600889 698.624zM410.823111 350.023111l0 323.982222L691.384889 512 410.823111 350.023111z" p-id="13322" fill="#ffffff"></path></svg>