<?xml version="1.0" standalone="no"?><!DOCTYPE svg PUBLIC "-//W3C//DTD SVG 1.1//EN" "http://www.w3.org/Graphics/SVG/1.1/DTD/svg11.dtd"><svg t="1492262806308" class="icon" style="" viewBox="0 0 1024 1024" version="1.1" xmlns="http://www.w3.org/2000/svg" p-id="3340" xmlns:xlink="http://www.w3.org/1999/xlink" width="200" height="200"><defs><style type="text/css"></style></defs><path d="M716.705 213.684c-138.888-138.934-364.124-138.934-503.059 0s-138.934 364.17 0 503.059c138.914 138.924 364.14 138.924 503.059 0.015v-0.015c138.924-138.904 138.924-364.13 0.015-503.044 0-0.005-0.015-0.005-0.015-0.015zM136.238 794.151c-181.64-181.69-181.64-476.225 0-657.921 181.68-181.64 476.2-181.64 657.921 0 181.65 181.696 181.65 476.23 0 657.921-181.721 181.64-476.235 181.64-657.92 0z m869.113 211.238c-24.836 24.801-65.069 24.801-89.885 0l-89.84-89.885c-24.806-24.822-24.806-65.039 0-89.845 24.801-24.8 65.018-24.8 89.84 0l89.885 89.845c24.863 24.862 24.863 65.069 0 89.885z" p-id="3341" fill="#ffffff"></path></svg>