<?xml version="1.0" standalone="no"?><!DOCTYPE svg PUBLIC "-//W3C//DTD SVG 1.1//EN" "http://www.w3.org/Graphics/SVG/1.1/DTD/svg11.dtd"><svg t="1492336417229" class="icon" style="" viewBox="0 0 1024 1024" version="1.1" xmlns="http://www.w3.org/2000/svg" p-id="17667" xmlns:xlink="http://www.w3.org/1999/xlink" width="200" height="200"><defs><style type="text/css"></style></defs><path d="M376.517329 260.160251l214.647685 0 28.118408-55.918567-10.136871 0c-0.845251-3.76986-3.158946-7.195889-6.765077-9.280364L379.326305 66.045205c-6.844895-3.956102-15.598256-1.607614-19.546172 5.242398l-14.309914 24.810059c-3.952009 6.851035-1.607614 15.611559 5.237281 19.567661l153.261593 88.577385L371.69858 204.242707c-169.859619 0-307.553655 137.696082-307.553655 307.553655 0 149.71993 107.002013 274.390347 248.693082 301.862026l26.591635-52.881394c-124.056434-17.638729-219.36615-122.370025-219.36615-248.980631C120.063493 372.820124 234.879472 260.160251 376.517329 260.160251z" p-id="17668" fill="#ffffff"></path><path d="M958.844048 511.795339c0-131.905192-83.059718-244.373707-199.713554-288.065811l-25.780153 51.269687c98.869798 34.930557 169.57514 127.749546 169.57514 236.797148 0 138.973168-114.819049 251.635087-256.453836 251.635087L487.742527 763.431449l-28.118408 55.917544 10.134825 0c0.845251 3.770883 3.158946 7.197936 6.764054 9.281387l223.059262 128.916115c6.844895 3.956102 15.595186 1.607614 19.546172-5.243421l14.309914-24.810059c3.952009-6.850012 1.607614-15.610536-5.237281-19.566638l-153.263639-88.578408 76.353992 0C821.146942 819.346947 958.844048 681.651888 958.844048 511.795339z" p-id="17669" fill="#ffffff"></path><path d="M421.457868 639.21845 421.457868 673.839969 603.375104 673.839969 603.375104 639.21845 532.49273 639.21845 532.49273 349.749686 419.61387 382.527207 419.61387 419.403069 492.544903 398.302495 492.544903 639.21845Z" p-id="17670" fill="#ffffff"></path></svg>