<?xml version="1.0" standalone="no"?><!DOCTYPE svg PUBLIC "-//W3C//DTD SVG 1.1//EN" "http://www.w3.org/Graphics/SVG/1.1/DTD/svg11.dtd"><svg t="1492322580137" class="icon" style="" viewBox="0 0 1024 1024" version="1.1" xmlns="http://www.w3.org/2000/svg" p-id="9112" xmlns:xlink="http://www.w3.org/1999/xlink" width="200" height="200"><defs><style type="text/css"></style></defs><path d="M724.964352 406.276096 555.322368 101.809152c-0.050176-0.090112-0.104448-0.175104-0.155648-0.264192-0.197632-0.34816-0.400384-0.692224-0.610304-1.033216-0.100352-0.16384-0.201728-0.325632-0.303104-0.4864-0.19968-0.314368-0.405504-0.625664-0.616448-0.934912-0.128-0.188416-0.257024-0.374784-0.388096-0.560128-0.18432-0.258048-0.371712-0.514048-0.5632-0.768-0.172032-0.228352-0.345088-0.45568-0.521216-0.678912-0.151552-0.191488-0.306176-0.379904-0.461824-0.56832-0.229376-0.277504-0.459776-0.551936-0.69632-0.820224-0.10752-0.121856-0.217088-0.241664-0.325632-0.362496-0.295936-0.32768-0.595968-0.649216-0.902144-0.96256-0.05632-0.057344-0.113664-0.113664-0.169984-0.171008-0.367616-0.371712-0.741376-0.733184-1.123328-1.08544-0.004096-0.004096-0.009216-0.008192-0.014336-0.013312-2.598912-2.393088-5.510144-4.327424-8.617984-5.772288-0.022528-0.01024-0.045056-0.021504-0.067584-0.031744-0.441344-0.203776-0.88576-0.396288-1.335296-0.580608-0.108544-0.045056-0.216064-0.091136-0.325632-0.135168-0.349184-0.139264-0.70144-0.268288-1.05472-0.395264-0.200704-0.072704-0.402432-0.14848-0.60416-0.217088-0.252928-0.084992-0.50688-0.161792-0.760832-0.241664-0.295936-0.09216-0.591872-0.186368-0.889856-0.270336-0.159744-0.045056-0.320512-0.082944-0.480256-0.125952-0.385024-0.1024-0.770048-0.202752-1.15712-0.290816-0.08192-0.018432-0.164864-0.033792-0.247808-0.0512-0.458752-0.100352-0.917504-0.19456-1.37728-0.274432-0.036864-0.006144-0.073728-0.011264-0.110592-0.017408-0.499712-0.084992-1.000448-0.160768-1.502208-0.222208-0.047104-0.006144-0.094208-0.009216-0.141312-0.014336-0.487424-0.057344-0.974848-0.10752-1.462272-0.14336-0.128-0.009216-0.257024-0.012288-0.385024-0.02048-0.40448-0.024576-0.809984-0.048128-1.214464-0.058368-0.26624-0.007168-0.53248-0.002048-0.79872-0.002048-0.26624 0-0.53248-0.00512-0.79872 0.002048-0.40448 0.009216-0.809984 0.033792-1.215488 0.058368-0.126976 0.008192-0.254976 0.01024-0.382976 0.02048-0.489472 0.03584-0.97792 0.086016-1.467392 0.14336-0.04608 0.00512-0.091136 0.008192-0.137216 0.014336-0.503808 0.06144-1.007616 0.13824-1.5104 0.224256-0.033792 0.00512-0.067584 0.01024-0.101376 0.01536-0.463872 0.080896-0.92672 0.175104-1.389568 0.27648-0.077824 0.017408-0.156672 0.03072-0.234496 0.048128-0.392192 0.089088-0.782336 0.190464-1.17248 0.293888-0.154624 0.04096-0.310272 0.077824-0.463872 0.121856-0.304128 0.084992-0.605184 0.181248-0.907264 0.275456-0.247808 0.0768-0.495616 0.152576-0.741376 0.234496-0.20992 0.070656-0.417792 0.149504-0.626688 0.224256-0.345088 0.123904-0.689152 0.25088-1.030144 0.386048-0.11776 0.047104-0.234496 0.09728-0.351232 0.145408-0.439296 0.180224-0.874496 0.36864-1.3056 0.56832-0.032768 0.01536-0.064512 0.03072-0.09728 0.04608-3.08224 1.434624-5.968896 3.351552-8.5504 5.720064-0.032768 0.029696-0.065536 0.059392-0.09728 0.089088-0.350208 0.323584-0.694272 0.657408-1.032192 0.997376-0.088064 0.089088-0.177152 0.177152-0.265216 0.26624-0.272384 0.279552-0.538624 0.566272-0.802816 0.856064-0.144384 0.15872-0.288768 0.31744-0.43008 0.478208-0.19968 0.228352-0.395264 0.4608-0.589824 0.695296-0.193536 0.232448-0.385024 0.466944-0.572416 0.704512-0.13824 0.176128-0.274432 0.355328-0.410624 0.534528-0.231424 0.306176-0.458752 0.6144-0.679936 0.92672-0.091136 0.130048-0.181248 0.26112-0.27136 0.392192-0.253952 0.369664-0.499712 0.743424-0.739328 1.12128-0.06144 0.09728-0.121856 0.19456-0.182272 0.292864-0.254976 0.412672-0.500736 0.82944-0.738304 1.251328-0.027648 0.049152-0.058368 0.096256-0.086016 0.145408L326.915072 406.276096c-9.370624 16.822272-3.811328 38.317056 12.417024 48.023552 16.228352 9.706496 36.990976 3.960832 46.360576-12.852224L492.032 250.60352l0 513.309696c0 75.078656-60.416 135.940096-136.192 135.940096l0 0.003072c-18.432 0.06656-33.808384 15.245312-33.808384 33.958912 0 18.712576 15.376384 33.892352 33.808384 33.958912L355.84 967.168c0 0 0.403456 0 0.436224 0 0.008192 0 0.016384 0 0.024576 0 0.013312 0 0.027648-0.012288 0.04096-0.012288C468.574208 967.067648 559.807488 876.032 559.86688 763.392L559.616 763.392 559.616 250.600448l106.459136 190.848c9.366528 16.813056 30.179328 22.55872 46.40768 12.852224C728.710144 444.593152 734.334976 423.098368 724.964352 406.276096z" p-id="9113" fill="#707070"></path></svg>