<?xml version="1.0" standalone="no"?><!DOCTYPE svg PUBLIC "-//W3C//DTD SVG 1.1//EN" "http://www.w3.org/Graphics/SVG/1.1/DTD/svg11.dtd"><svg t="1492336464158" class="icon" style="" viewBox="0 0 1024 1024" version="1.1" xmlns="http://www.w3.org/2000/svg" p-id="19649" xmlns:xlink="http://www.w3.org/1999/xlink" width="200" height="200"><defs><style type="text/css"></style></defs><path d="M517.935176 443.250196l-30.023804-44.221154c3.25616-4.386914 6.551206-8.806573 9.928117-13.293771C603.355661 245.522879 746.144738 237.138932 844.8549 253.516948l-77.213569-77.359902c-5.336542-5.343705-5.336542-14.009062 0-19.355837l19.320021-19.354813c5.334495-5.345752 13.982456-5.345752 19.320021 0l147.153478 147.428747c3.934612 1.711991 6.071276 2.747577 6.071276 2.747577l0 8.934486c0 0.052189 0 0.104377 0 0.157589l0 46.972824C714.734354 248.006444 590.481446 345.992105 517.935176 443.250196zM958.167642 680.101579l0 46.674019c0 0.048095 0 0.095167 0 0.143263l0 8.883321c0 0-2.133593 1.029446-6.063089 2.730181L805.172109 885.005342c-5.329379 5.310959-13.96506 5.310959-19.291368 0l-19.291368-19.22997c-5.328355-5.311982-5.328355-13.921058 0-19.230993l77.098959-76.858482c-98.562806 16.271592-241.138012 7.941879-346.496595-131.360793-177.605024-234.82626-183.591365-330.142116-433.037601-334.206688l0-55.701626c0 0 206.779484-58.908668 391.131165 236.729609C515.214205 581.254294 624.657826 809.817919 958.167642 680.101579zM358.984001 580.957535l32.629141 48.059576C226.339981 824.570925 64.153112 778.186502 64.153112 778.186502l0-56.0649C228.502227 719.43133 287.328008 676.980495 358.984001 580.957535z" p-id="19650" fill="#ffffff"></path></svg>